<svg width="618" height="194" viewBox="0 0 618 194" fill="none" xmlns="http://www.w3.org/2000/svg">
<path d="M159.089 87.5362C157.509 107.564 157.254 128.967 167.701 146.14C175.957 159.747 190.175 169.021 205.463 173.506C220.7 177.99 236.956 177.99 252.754 176.156C259.633 175.341 266.564 174.117 272.883 171.264C292.452 162.244 301.319 139.312 304.784 118.01C309.88 86.466 305.854 50.8959 283.279 28.3205C277.673 22.7659 270.997 18.0775 263.353 16.0901C257.544 14.5613 251.378 14.6632 245.364 15.0709C226.407 16.3449 206.329 20.1669 188.951 28.0147C176.008 33.8752 167.65 47.4815 163.777 60.5783C161.025 69.2925 159.751 78.4143 159.089 87.5362Z" fill="black"/>
<path d="M10.0298 39.7881C11.6605 85.0917 13.1893 135.491 14.6671 180.795C27.7129 179.725 40.9116 181.05 53.4478 184.719C54.5689 168.055 52.6325 146.142 47.8422 130.14C50.4412 133.962 55.9449 134.115 60.5313 133.81C67.1561 133.402 73.8319 133.045 80.4567 132.637C87.4382 132.23 94.4707 131.771 101.096 129.529C115.008 124.79 125.353 112.101 129.582 97.9846C133.812 83.8686 132.436 68.5806 128.206 54.4646C126.372 48.0946 123.824 41.8265 119.849 36.4757C111.491 25.3664 97.8851 19.7607 84.9412 14.6647C78.3673 12.0658 71.6406 9.46679 64.6081 9.05911C60.1236 8.80431 55.6901 9.41583 51.2565 10.0783C44.8865 10.9956 38.5165 11.9129 32.0955 12.7792C26.6937 13.5946 20.1708 13.5436 15.0239 15.633C6.41159 19.0983 9.77496 32.6537 10.0298 39.7881Z" stroke="black" stroke-width="17.492" stroke-miterlimit="10" stroke-linejoin="round"/>
<path d="M401.702 39.7879C411.588 41.8263 421.016 49.8271 421.219 59.9172C434.673 59.8662 448.177 59.8153 461.631 59.7643C463.109 49.1646 458.573 38.3101 451.235 30.5641C443.846 22.8182 433.908 17.926 423.665 14.8684C404.097 9.05895 382.694 9.61952 363.431 16.3972C354.003 19.7096 344.677 24.9076 339.53 33.4179C331.173 47.1771 335.963 65.0642 342.894 79.6388C345.034 84.1742 347.48 88.7097 351.2 92.073C354.054 94.672 357.57 96.4047 361.086 98.0354C371.024 102.724 381.267 106.801 391.713 110.215C399.052 112.61 406.645 114.801 412.964 119.286C419.283 123.77 424.124 131.159 423.309 138.804C414.085 141.657 404.606 144.613 394.924 144.154C385.242 143.696 375.202 139.262 370.667 130.701C369.138 127.745 367.864 124.076 364.654 123.108C363.533 122.802 362.36 122.853 361.239 122.904C351.2 123.566 341.161 124.229 331.122 124.891C330.154 124.942 329.134 125.044 328.37 125.605C327.402 126.318 327.096 127.592 326.943 128.815C325.975 136.816 330.052 144.817 335.963 150.32C341.874 155.824 349.417 159.188 357.01 161.99C370.004 166.883 383.458 170.501 397.115 172.845C410.416 175.087 424.532 176.055 437.017 170.857C460.051 161.328 470.549 130.956 460.917 107.973C458.777 102.877 455.719 98.0354 451.337 94.723C446.903 91.4106 441.451 89.8818 436.151 88.353C428.201 86.1617 420.2 83.9194 412.25 81.7281C402.313 78.9763 392.121 76.0716 383.815 69.9054C377.75 65.3699 372.807 58.6941 371.38 51.152C370.922 48.655 370.055 44.1195 372.654 42.5398C374.285 41.5715 376.731 41.4187 378.515 41.011C380.859 40.5014 383.203 40.0427 385.598 39.686C390.949 38.9216 396.402 38.7178 401.702 39.7879Z" stroke="black" stroke-width="17.492" stroke-miterlimit="10" stroke-linejoin="round"/>
<path d="M605.91 18.1311C607.642 28.6289 608.764 39.1777 609.171 49.8283C593.832 49.3187 578.493 48.8601 563.154 48.3505C558.364 56.4022 561.167 66.5432 562.747 75.818C564.887 88.4561 564.428 101.349 563.97 114.191C563.307 132.486 562.645 150.831 561.982 169.126C549.395 169.126 536.859 169.126 524.272 169.126C524.17 129.377 524.119 89.6282 524.017 49.8793C509.187 47.1274 493.899 46.5669 478.917 48.2995C478.509 48.3505 478.051 33.1134 478.051 31.7375C478.102 28.0174 478.153 23.9406 480.089 20.5772C483.962 13.9014 492.625 15.4302 499.046 16.0417C521.775 18.1311 544.656 19.2013 567.537 19.2013C580.328 19.1503 593.119 18.8445 605.91 18.1311Z" stroke="black" stroke-width="17.492" stroke-miterlimit="10" stroke-linejoin="round"/>
</svg>
